<svg width="368" height="391" viewBox="0 0 368 391" fill="none" xmlns="http://www.w3.org/2000/svg">
<g clip-path="url(#clip0_206_15)">
<path d="M81.8417 164.235L0.92 283.284C-1.44133 287.102 0.996667 292.066 5.46633 292.555L165.132 309.409L81.8417 164.235ZM5.681 240.885L63.4033 147.45L4.646 112.336C2.599 111.114 0 112.581 0 114.956V239.289C0 242.367 4.05567 243.512 5.681 240.885ZM13.9917 323.491L163.032 390.435C167.095 392.306 171.733 389.343 171.733 384.891V334.74L15.6783 317.71C12.2667 317.329 10.902 321.979 13.9917 323.491ZM76.2603 126.632L137.54 17.4728C140.867 12.0813 134.788 5.82682 129.275 8.96551L13.6543 84.2712C11.7607 85.5083 11.822 88.2881 13.754 89.4489L76.2603 126.632ZM184 134.406H267.728L194.45 5.81918C192.05 1.93973 188.025 0 184 0C179.975 0 175.95 1.93973 173.55 5.81918L100.272 134.406H184ZM363.354 112.336L304.597 147.457L362.319 240.893C363.937 243.52 368 242.374 368 239.289V114.956C368 112.581 365.401 111.114 363.354 112.336ZM291.74 126.632L354.246 89.4413C356.186 88.2805 356.239 85.5007 354.346 84.2636L238.725 8.96551C233.212 5.82682 227.133 12.0813 230.46 17.4728L291.74 126.632ZM352.322 317.71L196.267 334.733V384.883C196.267 389.343 200.905 392.298 204.968 390.427L354.008 323.484C357.098 321.979 355.733 317.329 352.322 317.71ZM286.158 164.235L202.875 309.409L362.541 292.555C367.011 292.059 369.449 287.102 367.088 283.284L286.158 164.235ZM184 158.844H107.004L184 293.059L260.996 158.844H184Z" fill="#2DEDB9"/>
</g>
<defs>
<clipPath id="clip0_206_15">
<rect width="368" height="391" fill="white"/>
</clipPath>
</defs>
</svg>
