<svg width="512" height="391" viewBox="0 0 512 391" fill="none" xmlns="http://www.w3.org/2000/svg">
<g filter="url(#filter0_i_113_10)">
<g clip-path="url(#clip0_113_10)">
<path d="M153.842 164.235L72.92 283.284C70.5587 287.102 72.9967 292.066 77.4663 292.555L237.132 309.409L153.842 164.235ZM77.681 240.885L135.403 147.45L76.646 112.336C74.599 111.114 72 112.581 72 114.956V239.289C72 242.367 76.0557 243.512 77.681 240.885ZM85.9917 323.491L235.032 390.435C239.095 392.306 243.733 389.343 243.733 384.891V334.74L87.6783 317.71C84.2667 317.329 82.902 321.979 85.9917 323.491ZM148.26 126.632L209.54 17.4728C212.867 12.0813 206.788 5.82682 201.275 8.96551L85.6543 84.2712C83.7607 85.5083 83.822 88.2881 85.754 89.4489L148.26 126.632ZM256 134.406H339.728L266.45 5.81918C264.05 1.93973 260.025 0 256 0C251.975 0 247.95 1.93973 245.55 5.81918L172.272 134.406H256ZM435.354 112.336L376.597 147.457L434.319 240.893C435.937 243.52 440 242.374 440 239.289V114.956C440 112.581 437.401 111.114 435.354 112.336ZM363.74 126.632L426.246 89.4413C428.186 88.2805 428.239 85.5007 426.346 84.2636L310.725 8.96551C305.212 5.82682 299.133 12.0813 302.46 17.4728L363.74 126.632ZM424.322 317.71L268.267 334.733V384.883C268.267 389.343 272.905 392.298 276.968 390.427L426.008 323.484C429.098 321.979 427.733 317.329 424.322 317.71ZM358.158 164.235L274.875 309.409L434.541 292.555C439.011 292.059 441.449 287.102 439.088 283.284L358.158 164.235ZM256 158.844H179.004L256 293.059L332.996 158.844H256Z" fill="#2DEDB9"/>
</g>
<path d="M39.0133 310.604C31.9413 310.604 26.2293 308.768 21.8773 305.096C17.7973 301.56 15.7573 297.004 15.7573 291.428V288.98C17.6613 273.068 31.1253 257.836 56.1493 243.284C66.8933 236.892 77.9773 231.656 89.4013 227.576C100.961 223.496 111.705 220.572 121.633 218.804C123.129 214.044 124.353 209.692 125.305 205.748C126.257 201.804 127.073 197.928 127.753 194.12C128.433 189.768 129.181 184.872 129.997 179.432C130.813 173.856 131.221 168.416 131.221 163.112C131.221 158.488 130.813 154.136 129.997 150.056C129.181 145.84 127.617 142.372 125.305 139.652C123.537 137.34 121.293 135.64 118.573 134.552C115.989 133.464 113.269 132.92 110.413 132.92C105.789 132.92 101.029 133.804 96.1333 135.572C91.3733 137.34 87.0213 139.584 83.0773 142.304C79.1333 145.024 74.9173 148.492 70.4293 152.708C66.0773 156.788 61.9973 161.276 58.1893 166.172C54.3813 170.932 51.2533 175.624 48.8053 180.248C46.4933 184.872 45.3373 188.952 45.3373 192.488C45.3373 195.208 45.9493 197.588 47.1733 199.628C48.3973 201.668 50.5053 203.028 53.4973 203.708C55.8093 204.116 57.8493 204.32 59.6173 204.32C62.3373 204.32 64.9213 203.912 67.3693 203.096C69.8173 202.28 72.2653 201.192 74.7133 199.832C77.0253 198.472 79.2693 196.976 81.4453 195.344C83.7573 193.712 85.7293 192.284 87.3613 191.06C88.9933 189.836 89.8093 189.224 89.8093 189.224H90.8293C91.2373 189.224 91.4413 189.564 91.4413 190.244C91.4413 190.788 91.2373 191.4 90.8293 192.08C90.5573 192.624 90.0813 193.304 89.4013 194.12C87.2253 196.704 84.0973 199.288 80.0173 201.872C76.0733 204.32 72.7413 206.02 70.0213 206.972C68.5253 207.516 66.6893 207.924 64.5133 208.196C62.4733 208.468 60.5693 208.604 58.8013 208.604C57.7133 208.604 56.5573 208.536 55.3333 208.4C54.2453 208.264 53.0893 207.992 51.8653 207.584C47.7853 206.224 44.7933 203.98 42.8893 200.852C40.9853 197.724 40.0333 194.12 40.0333 190.04C40.0333 185.824 41.1893 181.268 43.5013 176.372C45.8133 171.476 48.8733 166.58 52.6813 161.684C56.6253 156.788 60.9093 152.3 65.5333 148.22C70.1573 144.004 74.7813 140.468 79.4053 137.612C83.6213 135.164 88.3813 133.124 93.6853 131.492C98.9893 129.86 104.293 129.044 109.597 129.044H110.413C114.085 129.044 117.621 129.656 121.021 130.88C124.421 132.104 127.413 133.872 129.997 136.184C133.533 139.312 135.913 143.664 137.137 149.24C138.361 154.68 138.973 160.528 138.973 166.784C138.973 171.272 138.769 175.964 138.361 180.86C138.089 185.756 137.545 190.176 136.729 194.12L136.321 196.16C135.641 199.696 134.893 203.3 134.077 206.972C133.397 210.644 132.445 214.384 131.221 218.192H133.057C137.137 218.192 140.061 218.464 141.829 219.008C143.597 219.552 144.481 220.64 144.481 222.272C144.481 223.632 144.141 224.312 143.461 224.312L141.625 222.884C141.081 222.612 140.061 222.476 138.565 222.476C137.069 222.476 135.777 222.476 134.689 222.476C133.737 222.476 132.853 222.476 132.037 222.476C131.357 222.476 130.541 222.612 129.589 222.884C125.509 234.444 120.205 245.46 113.677 255.932C107.285 266.54 100.077 275.924 92.0533 284.084C84.0293 292.38 75.5973 298.84 66.7573 303.464C57.9173 308.224 49.0773 310.604 40.2373 310.604H39.0133ZM41.2573 307.544C46.0173 307.272 50.8453 306.116 55.7413 304.076C60.6373 302.172 65.7373 299.18 71.0413 295.1C82.0573 286.532 91.8493 275.992 100.417 263.48C108.985 251.104 115.649 237.572 120.409 222.884C114.969 223.7 108.441 225.264 100.825 227.576C93.3453 229.752 85.3893 232.744 76.9573 236.552C69.0693 239.952 62.5413 243.352 57.3733 246.752C52.2053 250.288 47.5813 253.824 43.5013 257.36C37.2453 262.8 32.3493 268.172 28.8133 273.476C25.2773 278.78 23.1693 284.016 22.4893 289.184C22.3533 290 22.2853 290.544 22.2853 290.816C22.2853 291.224 22.2853 291.564 22.2853 291.836C22.2853 294.556 22.7613 296.664 23.7133 298.16C24.5293 299.656 25.6173 301.084 26.9773 302.444C28.4733 303.804 30.3773 305.028 32.6893 306.116C35.0013 307.204 37.8573 307.68 41.2573 307.544ZM158.765 241.448C154.005 241.448 151.625 238.66 151.625 233.084C151.625 225.332 155.025 216.22 161.825 205.748C161.689 205.068 161.553 204.32 161.417 203.504C161.417 202.688 161.417 201.94 161.417 201.26C161.417 196.364 163.049 191.604 166.313 186.98C169.577 182.356 173.589 180.044 178.349 180.044C182.429 180.044 185.149 181.472 186.509 184.328C188.005 187.184 188.753 190.38 188.753 193.916C188.753 196.908 188.413 199.764 187.733 202.484C187.053 205.34 186.033 208.536 184.673 212.072C183.313 215.608 181.613 219.348 179.573 223.292C181.613 224.516 183.925 225.128 186.509 225.128C188.821 225.128 190.997 224.856 193.037 224.312C195.077 223.632 196.981 222.408 198.749 220.64C200.517 218.872 201.877 217.308 202.829 215.948C203.917 214.588 204.393 213.976 204.257 214.112C204.529 213.84 204.801 213.704 205.073 213.704C205.617 213.704 206.025 214.044 206.297 214.724C206.705 215.404 206.637 216.084 206.093 216.764C203.917 219.892 201.061 222.68 197.525 225.128C194.125 227.44 190.385 228.596 186.305 228.596C183.177 228.596 180.457 227.916 178.145 226.556C171.889 236.484 165.429 241.448 158.765 241.448ZM176.921 221.456C178.689 217.104 180.049 213.364 181.001 210.236C181.953 207.108 182.429 204.184 182.429 201.464V199.832C182.429 196.16 181.817 192.76 180.593 189.632C179.369 186.368 177.601 184.736 175.289 184.736C172.161 184.736 169.713 186.64 167.945 190.448C166.721 193.032 166.109 195.888 166.109 199.016V200.24C168.285 197.656 170.461 196.364 172.637 196.364C174.677 196.364 176.173 197.044 177.125 198.404C177.533 198.948 177.737 199.424 177.737 199.832C177.737 200.648 176.921 201.056 175.289 201.056C172.841 201.056 170.257 203.64 167.537 208.808C169.441 214.112 172.569 218.328 176.921 221.456ZM162.029 236.552C163.797 236.552 166.313 234.92 169.577 231.656C170.937 230.296 172.093 229.004 173.045 227.78C173.997 226.556 174.745 225.4 175.289 224.312C170.665 221.184 167.265 217.716 165.089 213.908C161.009 222.476 158.969 228.664 158.969 232.472C158.969 235.192 159.989 236.552 162.029 236.552ZM233.33 240.224C225.578 240.224 221.702 235.328 221.702 225.536C221.702 221.184 222.382 216.968 223.742 212.888C225.238 208.808 226.938 205.068 228.842 201.668C224.082 205.884 219.05 211.12 213.746 217.376C208.578 223.496 203.478 230.364 198.446 237.98C197.63 239.204 197.018 239.816 196.61 239.816C195.386 239.816 194.774 238.592 194.774 236.144C194.774 235.6 194.91 235.056 195.182 234.512C196.678 230.84 198.174 226.624 199.67 221.864C201.166 216.968 202.662 211.256 204.158 204.728C204.43 203.368 204.702 202.008 204.974 200.648C205.246 199.288 205.654 197.52 206.198 195.344C206.47 194.528 207.422 193.576 209.054 192.488C210.414 191.536 211.774 191.06 213.134 191.06C214.086 191.06 214.562 191.468 214.562 192.284C214.562 192.964 213.746 195.888 212.114 201.056C210.482 206.224 208.102 213.636 204.974 223.292C205.79 222.204 207.49 220.232 210.074 217.376C212.658 214.384 216.058 210.576 220.274 205.952L232.922 192.08C233.874 191.128 234.962 190.652 236.186 190.652C239.314 190.652 240.878 192.216 240.878 195.344C240.878 196.024 240.606 196.84 240.062 197.792C232.446 210.304 228.638 220.232 228.638 227.576C228.638 232.744 231.086 235.328 235.982 235.328C239.518 235.328 243.598 233.356 248.222 229.412C250.126 227.916 251.758 226.284 253.118 224.516C254.614 222.612 256.178 220.572 257.81 218.396C260.666 214.452 262.298 212.48 262.706 212.48C263.114 212.48 263.318 212.888 263.318 213.704C263.318 214.52 262.91 215.676 262.094 217.172C252.846 232.54 243.258 240.224 233.33 240.224ZM272.155 240.632C261.955 240.632 256.855 235.192 256.855 224.312C256.855 220.776 257.875 217.104 259.915 213.296C261.955 209.488 264.811 205.612 268.483 201.668C276.099 193.644 283.103 189.632 289.495 189.632C293.847 189.632 296.023 191.332 296.023 194.732C296.023 195.956 295.071 198.268 293.167 201.668C291.127 205.068 289.495 206.768 288.271 206.768C287.727 206.768 287.455 206.428 287.455 205.748C287.455 205.204 287.659 204.32 288.067 203.096C288.611 202.008 288.883 201.056 288.883 200.24C288.883 197.384 287.115 195.956 283.579 195.956C282.083 195.956 280.179 196.772 277.867 198.404C275.555 199.9 273.447 202.212 271.543 205.34C268.007 211.188 266.239 216.56 266.239 221.456C266.239 229.752 269.775 233.9 276.847 233.9C279.839 233.9 283.103 233.016 286.639 231.248C290.311 229.48 293.779 227.236 297.043 224.516C300.443 221.66 303.027 218.736 304.795 215.744C305.883 214.112 306.767 213.296 307.447 213.296C307.991 213.296 308.263 213.5 308.263 213.908V214.724C308.263 214.996 308.195 215.336 308.059 215.744C308.059 216.152 307.923 216.492 307.651 216.764C305.611 219.756 303.163 222.816 300.307 225.944C297.451 228.936 293.643 231.996 288.883 235.124C286.435 236.756 283.715 238.048 280.723 239C277.867 240.088 275.011 240.632 272.155 240.632ZM316.979 240.02C312.763 240.02 309.771 238.592 308.003 235.736C306.235 232.88 305.351 229.344 305.351 225.128C305.351 219.96 306.235 214.588 308.003 209.012C309.771 203.3 311.675 198.608 313.715 194.936H312.491C307.731 194.936 304.535 194.596 302.903 193.916C301.407 193.1 300.659 191.808 300.659 190.04C300.659 189.088 301.407 188.612 302.903 188.612L315.959 189.428C319.359 182.628 322.759 176.304 326.159 170.456C329.695 164.608 332.619 160.528 334.931 158.216C336.835 156.312 339.487 155.36 342.887 155.36C345.879 155.36 347.375 155.972 347.375 157.196C347.375 157.468 347.307 157.672 347.171 157.808L338.399 168.212C336.359 170.66 334.115 173.788 331.667 177.596C329.219 181.404 326.771 185.484 324.323 189.836C325.819 189.972 327.179 190.04 328.403 190.04C329.763 190.04 330.919 190.04 331.871 190.04C332.415 190.04 333.027 190.04 333.707 190.04C334.387 189.904 335.203 189.836 336.155 189.836H340.439C342.071 189.836 342.887 190.244 342.887 191.06C342.887 193.1 335.883 194.324 321.875 194.732C320.379 197.588 318.883 200.92 317.387 204.728C315.891 208.4 314.667 212.072 313.715 215.744C312.899 219.416 312.491 222.748 312.491 225.74C312.491 231.996 315.143 235.124 320.447 235.124C324.799 235.124 329.899 232.472 335.747 227.168C338.059 224.992 340.031 222.816 341.663 220.64C343.431 218.328 345.131 216.016 346.763 213.704C347.579 212.48 348.327 211.868 349.007 211.868C349.687 211.868 350.027 212.276 350.027 213.092C350.027 213.636 349.891 214.18 349.619 214.724C349.483 215.132 349.347 215.472 349.211 215.744C347.443 218.056 345.471 220.572 343.295 223.292C341.255 226.012 338.807 228.664 335.951 231.248C329.287 237.096 322.963 240.02 316.979 240.02ZM364.143 186.98C360.879 186.98 359.247 185.348 359.247 182.084C359.247 180.452 359.859 179.024 361.083 177.8C362.443 176.44 364.007 175.76 365.775 175.76C369.039 175.76 370.671 177.392 370.671 180.656C370.671 182.288 370.059 183.716 368.835 184.94C367.475 186.3 365.911 186.98 364.143 186.98ZM352.311 242.468C344.831 242.468 341.091 238.456 341.091 230.432C341.091 226.624 342.451 221.048 345.171 213.704C346.395 210.304 347.619 207.448 348.843 205.136C350.203 202.688 351.563 200.444 352.923 198.404C353.739 197.18 354.691 196.568 355.779 196.568C356.867 196.568 357.955 197.112 359.043 198.2C359.723 198.88 360.063 199.764 360.063 200.852C360.063 201.804 359.791 202.756 359.247 203.708C356.255 208.332 353.807 213.024 351.903 217.784C349.999 222.408 349.047 226.556 349.047 230.228C349.047 235.124 350.815 237.572 354.351 237.572C356.255 237.572 358.431 237.096 360.879 236.144C363.327 235.056 365.775 233.424 368.223 231.248C369.855 229.752 371.555 228.052 373.323 226.148C375.227 224.244 377.131 222 379.035 219.416C382.571 215.064 384.339 212.888 384.339 212.888C385.019 212.888 385.359 213.432 385.359 214.52C385.359 215.608 384.883 216.696 383.931 217.784C371.555 234.24 361.015 242.468 352.311 242.468ZM384.28 241.448C379.52 241.448 377.14 238.66 377.14 233.084C377.14 225.332 380.54 216.22 387.34 205.748C387.204 205.068 387.068 204.32 386.932 203.504C386.932 202.688 386.932 201.94 386.932 201.26C386.932 196.364 388.564 191.604 391.828 186.98C395.092 182.356 399.104 180.044 403.864 180.044C407.944 180.044 410.664 181.472 412.024 184.328C413.52 187.184 414.268 190.38 414.268 193.916C414.268 196.908 413.928 199.764 413.248 202.484C412.568 205.34 411.548 208.536 410.188 212.072C408.828 215.608 407.128 219.348 405.088 223.292C407.128 224.516 409.44 225.128 412.024 225.128C414.336 225.128 416.512 224.856 418.552 224.312C420.592 223.632 422.496 222.408 424.264 220.64C426.032 218.872 427.392 217.308 428.344 215.948C429.432 214.588 429.908 213.976 429.772 214.112C430.044 213.84 430.316 213.704 430.588 213.704C431.132 213.704 431.54 214.044 431.812 214.724C432.22 215.404 432.152 216.084 431.608 216.764C429.432 219.892 426.576 222.68 423.04 225.128C419.64 227.44 415.9 228.596 411.82 228.596C408.692 228.596 405.972 227.916 403.66 226.556C397.404 236.484 390.944 241.448 384.28 241.448ZM402.436 221.456C404.204 217.104 405.564 213.364 406.516 210.236C407.468 207.108 407.944 204.184 407.944 201.464V199.832C407.944 196.16 407.332 192.76 406.108 189.632C404.884 186.368 403.116 184.736 400.804 184.736C397.676 184.736 395.228 186.64 393.46 190.448C392.236 193.032 391.624 195.888 391.624 199.016V200.24C393.8 197.656 395.976 196.364 398.152 196.364C400.192 196.364 401.688 197.044 402.64 198.404C403.048 198.948 403.252 199.424 403.252 199.832C403.252 200.648 402.436 201.056 400.804 201.056C398.356 201.056 395.772 203.64 393.052 208.808C394.956 214.112 398.084 218.328 402.436 221.456ZM387.544 236.552C389.312 236.552 391.828 234.92 395.092 231.656C396.452 230.296 397.608 229.004 398.56 227.78C399.512 226.556 400.26 225.4 400.804 224.312C396.18 221.184 392.78 217.716 390.604 213.908C386.524 222.476 384.484 228.664 384.484 232.472C384.484 235.192 385.504 236.552 387.544 236.552ZM458.845 240.224C451.093 240.224 447.217 235.328 447.217 225.536C447.217 221.184 447.897 216.968 449.257 212.888C450.753 208.808 452.453 205.068 454.357 201.668C449.597 205.884 444.565 211.12 439.261 217.376C434.093 223.496 428.993 230.364 423.961 237.98C423.145 239.204 422.533 239.816 422.125 239.816C420.901 239.816 420.289 238.592 420.289 236.144C420.289 235.6 420.425 235.056 420.697 234.512C422.193 230.84 423.689 226.624 425.185 221.864C426.681 216.968 428.177 211.256 429.673 204.728C429.945 203.368 430.217 202.008 430.489 200.648C430.761 199.288 431.169 197.52 431.713 195.344C431.985 194.528 432.937 193.576 434.569 192.488C435.929 191.536 437.289 191.06 438.649 191.06C439.601 191.06 440.077 191.468 440.077 192.284C440.077 192.964 439.261 195.888 437.629 201.056C435.997 206.224 433.617 213.636 430.489 223.292C431.305 222.204 433.005 220.232 435.589 217.376C438.173 214.384 441.573 210.576 445.789 205.952L458.437 192.08C459.389 191.128 460.477 190.652 461.701 190.652C464.829 190.652 466.393 192.216 466.393 195.344C466.393 196.024 466.121 196.84 465.577 197.792C457.961 210.304 454.153 220.232 454.153 227.576C454.153 232.744 456.601 235.328 461.497 235.328C465.033 235.328 469.113 233.356 473.737 229.412C475.641 227.916 477.273 226.284 478.633 224.516C480.129 222.612 481.693 220.572 483.325 218.396C486.181 214.452 487.813 212.48 488.221 212.48C488.629 212.48 488.833 212.888 488.833 213.704C488.833 214.52 488.425 215.676 487.609 217.172C478.361 232.54 468.773 240.224 458.845 240.224Z" fill="black"/>
</g>
<defs>
<filter id="filter0_i_113_10" x="0" y="0" width="512" height="395" filterUnits="userSpaceOnUse" color-interpolation-filters="sRGB">
<feFlood flood-opacity="0" result="BackgroundImageFix"/>
<feBlend mode="normal" in="SourceGraphic" in2="BackgroundImageFix" result="shape"/>
<feColorMatrix in="SourceAlpha" type="matrix" values="0 0 0 0 0 0 0 0 0 0 0 0 0 0 0 0 0 0 127 0" result="hardAlpha"/>
<feOffset dy="4"/>
<feGaussianBlur stdDeviation="2"/>
<feComposite in2="hardAlpha" operator="arithmetic" k2="-1" k3="1"/>
<feColorMatrix type="matrix" values="0 0 0 0 0 0 0 0 0 0 0 0 0 0 0 0 0 0 0.25 0"/>
<feBlend mode="normal" in2="shape" result="effect1_innerShadow_113_10"/>
</filter>
<clipPath id="clip0_113_10">
<rect width="368" height="391" fill="white" transform="translate(72)"/>
</clipPath>
</defs>
</svg>
